# xmcd CD database file
#
# Track frame offsets:
#	150
#	23000
#	40362
#	61762
#	82750
#	96862
#	117687
#	134900
#	147350
#
# Disc length: 2165 seconds
#
# Revision: 0
# Processed by: cddbd v1.4PL0 Copyright (c) Steve Scherf et al.
# Submitted via: Feurio! 1.65 - http://www.feurio.com
#
DISCID=7c087309
DTITLE=Dana Gillespie - Move Your Body Close To Me
DYEAR=1988
DGENRE=blues
TTITLE0=Move Your Body Close To Me
TTITLE1=The Good Thing
TTITLE2=Don't Touch Me There
TTITLE3=In Danger Tonight
TTITLE4=Good And Direct
TTITLE5=Know My Love
TTITLE6=The Air That I Breathe
TTITLE7=Living In Reverse
TTITLE8=Haunted By You
EXTD=ARD Bellaphon 288.31.004
EXTT0=
EXTT1=
EXTT2=
EXTT3=
EXTT4=
EXTT5=
EXTT6=
EXTT7=
EXTT8=
PLAYORDER=
